# xmcd CD database file
#
# Track frame offsets:
#	150
#	19365
#	47035
#	66135
#	107380
#	114810
#	147677
#	152102
#	172115
#	194870
#	222840
#	284042
#	308205
#
# Disc length: 4256 seconds
#
# Revision: 0
# Processed by: cddbd v1.5.2PL0 Copyright (c) Steve Scherf et al.
# Submitted via: CDex 1.50
#
DISCID=cb109e0d
DTITLE=Salvatore Bonafede - Plays
DYEAR=1991
DGENRE=Jazz
TTITLE0=Blues (Blouses)
TTITLE1=Cameron Brown
TTITLE2=I Eat My Meat Bit by Bit
TTITLE3=Defensive Grip
TTITLE4=Dnes Otivam Nakino
TTITLE5=Charlie Haden
TTITLE6=It Happens at '48
TTITLE7=Tommy Flanagan
TTITLE8=Two Chairs
TTITLE9=Houdini, Censors, Ufo's, Wed, Us, up, Pup
TTITLE10=Suite: Bill Evans
TTITLE11=Precipitevolissimevolmente
TTITLE12=Nino Rota
EXTD=YEAR: 1991
EXTT0=
EXTT1=
EXTT2=
EXTT3=
EXTT4=
EXTT5=
EXTT6=
EXTT7=
EXTT8=
EXTT9=
EXTT10=
EXTT11=
EXTT12=
PLAYORDER=
